<svg width="583" height="564" viewBox="0 0 583 564" fill="none" xmlns="http://www.w3.org/2000/svg">
<path d="M384.324 418.045L517.396 377.81L526.003 400.609L524.374 420.151L396.94 459.768L384.324 418.045Z" fill="#FFF500"/>
<rect x="275.298" y="392.699" width="256.864" height="48.6415" transform="rotate(-14.5727 275.298 392.699)" fill="#A1FFF9"/>
<path d="M402.238 180.762C382.326 164.365 304.528 124.308 267.073 107.48C260.016 89.5665 253.758 50.6668 288.243 58.6251C330.584 68.3961 390.838 112.365 451.092 156.335C496.941 189.791 555.859 255.673 578.115 286.614C573.772 308.327 560.201 327.326 530.889 306.156C478.777 236.131 429.922 203.561 402.238 180.762Z" fill="#FFC700"/>
<ellipse cx="286.614" cy="276.195" rx="6.02894" ry="24.7272" transform="rotate(17.0861 286.614 276.195)" fill="#A6FFFA"/>
<ellipse cx="267.43" cy="168.168" rx="6.02894" ry="22.6145" transform="rotate(83.4326 267.43 168.168)" fill="#A6FFFA"/>
<ellipse cx="416.948" cy="294.344" rx="6.34781" ry="17.6436" transform="rotate(40.8318 416.948 294.344)" fill="#A6FFFA"/>
<ellipse cx="364.782" cy="224.732" rx="22.7989" ry="19.5419" fill="#FB18CA"/>
<ellipse cx="179.327" cy="262.809" rx="22.7989" ry="19.5419" transform="rotate(-29.9015 179.327 262.809)" fill="#FB18CA"/>
<ellipse cx="101.88" cy="366.494" rx="21.9057" ry="16.4833" transform="rotate(-29.9015 101.88 366.494)" fill="#FB18CA"/>
<g clip-path="url(#clip0_84_146)">
<path d="M256.856 177.255C257.482 177.155 258.064 177.068 258.559 177.018C264.188 176.482 269.804 175.589 275.239 174.728C278.439 174.223 281.638 173.711 284.838 173.274C286.472 173.05 288.939 172.713 290.93 171.034C292.934 169.349 293.936 166.697 293.548 164.114C293.065 160.888 290.592 156.801 281.582 155.659C276.961 155.073 271.789 155.372 268.258 155.728C260.963 156.464 252.886 157.693 248.265 161.256C245.066 163.721 242.173 169.836 244.734 174.192C245.792 175.995 247.376 176.931 249.117 177.374C251.74 178.042 254.727 177.58 256.856 177.249V177.255ZM252.623 166.878C256.261 164.077 265.503 163.147 268.978 162.798C272.134 162.479 276.729 162.205 280.687 162.71C284.068 163.141 286.347 164.108 286.51 165.175C286.529 165.312 286.447 165.531 286.341 165.618C285.927 165.967 284.694 166.136 283.874 166.248C280.618 166.691 277.368 167.209 274.118 167.727C268.796 168.569 263.286 169.443 257.883 169.961C257.269 170.017 256.549 170.129 255.773 170.248C254.558 170.435 251.815 170.853 250.87 170.516C250.763 169.705 251.665 167.621 252.623 166.885V166.878Z" fill="#7A20B3"/>
<path d="M168.733 287.994C176.328 289.541 184.925 287.576 191.731 282.734C200.153 276.743 206.032 265.194 205.713 255.272C205.519 249.288 202.895 244.483 198.124 241.395C191.637 237.189 181.431 236.727 172.728 240.24C164.588 243.529 157.907 249.432 153.919 256.851C151.182 261.949 150.212 267.078 151.114 271.683C152.579 279.152 159.285 285.623 167.631 287.738C167.994 287.832 168.364 287.913 168.739 287.994H168.733ZM158.101 270.329C157.362 266.56 158.834 262.741 160.193 260.208C163.392 254.243 168.796 249.488 175.395 246.823C180.216 244.877 185.695 244.483 190.066 245.588C191.625 245.981 193.04 246.568 194.236 247.341C197.009 249.138 198.468 251.884 198.587 255.503C198.838 263.097 194.104 272.319 187.592 276.949C182.364 280.668 175.846 282.191 170.161 281.03C164.131 279.832 159.078 275.296 158.101 270.316V270.329Z" fill="#7A20B3"/>
<path d="M337.897 219.68C334.798 230.787 339.6 241.613 350.144 247.266C352.799 248.689 355.523 249.756 358.24 250.442C360.964 251.135 363.675 251.447 366.311 251.366C377.801 251.004 388.577 242.356 391.382 231.249C393.849 221.477 390.079 210.476 381.996 203.874C376.423 199.319 368.54 197.834 360.369 199.806C349.518 202.421 340.489 210.408 337.897 219.68ZM362.041 206.701C365.553 205.853 372.234 205.079 377.475 209.366C383.373 214.183 386.247 222.469 384.469 229.514C382.409 237.663 374.507 244.003 366.079 244.271C362.072 244.396 357.72 243.273 353.519 241.014C345.905 236.933 342.555 229.489 344.759 221.583C346.65 214.819 353.757 208.704 362.041 206.701Z" fill="#7A20B3"/>
<path d="M278.652 303.107C284.562 303.481 289.453 299.307 292.07 291.651C292.283 291.02 292.496 290.384 292.702 289.747C294.067 285.523 295.201 281.205 296.303 277.031C296.972 274.497 297.636 271.964 298.356 269.443L298.456 269.093C299.815 264.345 302.338 255.516 296.033 250.892C293.297 248.889 290.811 249.095 289.208 249.619C284.093 251.297 281.275 258.473 279.365 264.607C278.608 267.034 277.844 269.412 277.105 271.702C272.584 285.754 269.598 295.033 273.041 300.074C273.749 301.11 274.989 302.333 277.074 302.857C277.556 302.982 278.082 303.063 278.658 303.101L278.652 303.107ZM283.88 273.873C284.625 271.558 285.395 269.162 286.184 266.641C289.165 257.051 291.344 256.389 291.362 256.364C291.362 256.364 291.538 256.414 291.801 256.614C294.124 258.317 292.539 263.846 291.6 267.153L291.5 267.509C290.767 270.073 290.091 272.65 289.409 275.227C288.332 279.314 287.217 283.539 285.915 287.582C285.721 288.181 285.527 288.774 285.32 289.367C284.613 291.445 282.584 296.249 279.103 296.025C278.984 296.018 278.902 296.006 278.871 296.006C277.512 293.635 281.338 281.76 283.874 273.873H283.88Z" fill="#7A20B3"/>
<path d="M233.551 226.756C233.125 225.071 233.194 223.174 233.269 221.54C233.351 219.892 233.369 218.488 233.269 217.552C233.182 216.61 233.044 216.111 233.044 216.111C233.044 216.111 232.887 216.591 232.537 217.421C232.161 218.27 231.622 219.487 230.959 220.978C230.32 222.532 229.506 224.572 229.569 227.236C229.625 228.559 229.913 230.044 230.821 231.473C231.704 232.834 233.012 234.019 234.822 234.6C235.724 234.88 236.738 234.968 237.702 234.793C238.654 234.624 239.518 234.238 240.226 233.738C241.653 232.715 242.373 231.48 242.924 230.419C243.463 229.346 243.807 228.347 244.108 227.492C244.371 226.725 244.677 226.02 245.009 225.439C245.673 224.248 246.418 223.561 247.025 223.274C247.639 223 248.084 223.012 248.084 223.012C248.071 223.037 247.764 222.688 246.863 222.55C245.974 222.426 244.483 222.85 243.112 224.01C242.423 224.578 241.76 225.302 241.146 226.157C240.576 226.937 240.013 227.748 239.424 228.466C238.836 229.171 238.197 229.776 237.658 230.001C237.101 230.219 236.732 230.244 236.181 230.057C235.63 229.87 234.991 229.42 234.54 228.865C234.108 228.366 233.751 227.573 233.545 226.756H233.551Z" fill="#7A20B3"/>
<path d="M411.506 251.921C411.305 252.177 411.155 252.364 411.036 252.502C410.986 252.352 410.942 252.19 410.917 251.965C410.836 251.372 410.817 250.648 410.673 249.974C410.429 248.496 409.308 247.728 408.682 247.709C408.018 247.678 407.943 248.053 407.93 248.003C407.93 248.015 408.156 248.046 408.306 248.346C408.387 248.489 408.469 248.714 408.488 248.989C408.513 249.288 408.438 249.438 408.3 249.862C408.168 250.261 407.93 250.761 407.699 251.522C407.467 252.233 407.292 253.537 407.774 254.742C408.012 255.359 408.444 256.09 409.289 256.632C410.122 257.181 411.249 257.331 412.182 257.082C414.016 256.526 414.711 255.459 415.325 254.742C417.473 251.965 418.844 249.107 419.633 246.986C420.428 244.858 420.691 243.466 420.691 243.466C420.691 243.466 419.376 244.309 417.592 245.775C415.801 247.248 413.534 249.307 411.512 251.921H411.506Z" fill="#7A20B3"/>
<path d="M314.053 186.022C312.833 186.484 311.9 187.364 311.298 188.057C310.071 189.542 309.696 189.966 308.944 190.228C308.612 190.347 308.331 190.359 308.13 190.328C307.88 190.284 307.617 190.109 307.479 189.966C307.341 189.822 307.235 189.729 307.272 189.361C307.304 189.011 307.523 188.518 307.805 188.007C308.412 186.958 309.057 185.704 309.301 184.556C309.577 183.389 309.533 182.26 309.213 181.38C308.9 180.506 308.393 179.907 307.93 179.552C306.959 178.84 306.346 179.021 306.364 178.978C306.364 178.978 306.49 179.04 306.684 179.196C306.878 179.352 307.147 179.608 307.36 180.026C307.823 180.874 307.974 182.247 307.072 183.739C306.859 184.113 306.584 184.5 306.271 184.887C305.951 185.28 305.594 185.642 305.131 186.172C304.693 186.696 304.148 187.333 303.772 188.344C303.372 189.323 303.384 190.802 303.966 191.894C304.524 192.998 305.432 193.835 306.577 194.34C307.792 194.858 309.051 194.864 310.19 194.59C311.323 194.309 312.344 193.747 313.189 192.992C313.997 192.262 314.517 191.557 314.949 191.089C315.375 190.609 315.656 190.434 315.863 190.34C315.951 190.303 315.951 190.309 315.907 190.297C315.85 190.284 315.876 190.253 316.07 190.359C316.452 190.528 317.084 191.176 318.418 191.657C319.081 191.882 319.958 191.931 320.653 191.744C321.367 191.57 321.937 191.233 322.387 190.871C323.302 190.141 323.827 189.155 324.097 188.412C324.385 187.645 324.516 187.008 324.66 186.503C324.942 185.504 325.33 184.581 325.781 183.782C326.676 182.172 327.766 181.043 328.567 180.332C329.381 179.62 329.895 179.29 329.895 179.29C329.895 179.29 329.262 179.346 328.142 179.726C327.04 180.113 325.418 180.881 323.809 182.466C323.001 183.252 322.231 184.256 321.58 185.467C320.985 186.69 320.428 187.638 319.933 187.72C319.851 187.707 319.814 187.72 319.795 187.738C319.795 187.707 319.808 187.676 319.801 187.601C319.664 187.52 319.213 187.039 318.242 186.397C317.766 186.091 317.009 185.766 316.201 185.704C315.406 185.642 314.661 185.791 314.047 186.035L314.053 186.022Z" fill="#7A20B3"/>
<path d="M355.347 301.977C356.612 301.622 357.633 300.916 358.409 300.149C359.968 298.589 360.682 296.748 361.089 295.17C361.49 293.591 361.671 292.274 362.085 291.132C362.88 288.811 364.201 287.089 365.234 286.016C366.28 284.942 367.006 284.437 367.006 284.437C367.006 284.437 366.161 284.662 364.777 285.429C363.418 286.209 361.483 287.619 359.931 290.128C359.142 291.394 358.609 292.867 358.015 294.14C357.439 295.382 356.662 296.517 355.698 297.21C355.21 297.553 354.734 297.759 354.258 297.815C353.763 297.884 353.231 297.809 352.887 297.628C352.536 297.441 352.392 297.266 352.223 296.879C352.073 296.492 351.997 295.819 352.022 294.982C352.035 294.103 352.154 293.26 352.141 291.994C352.104 290.764 351.872 289.572 351.315 288.362C350.777 287.189 349.643 285.816 347.953 285.373C347.139 285.155 346.331 285.198 345.868 285.261C345.605 285.292 345.342 285.323 345.085 285.354C345.06 285.086 345.11 284.699 345.223 284.412C345.573 283.482 346.763 282.184 347.126 280.4C347.301 279.501 347.164 278.547 346.857 277.848C346.55 277.124 346.118 276.581 345.673 276.144C344.759 275.271 343.82 274.896 343.113 274.634C342.386 274.385 341.841 274.266 341.472 274.185C341.103 274.11 340.915 274.066 340.915 274.066C340.915 274.066 341.084 274.172 341.416 274.378C341.741 274.584 342.236 274.884 342.825 275.314C343.407 275.751 344.108 276.338 344.578 277.168C345.06 277.991 345.273 279.058 344.803 279.888C344.59 280.319 344.227 280.749 343.776 281.236C343.325 281.754 342.806 282.203 342.255 283.102C341.766 283.988 341.409 284.98 341.56 286.303C341.647 286.952 341.929 287.75 342.587 288.368C343.213 288.986 344.139 289.304 344.822 289.354C345.511 289.423 346.012 289.373 346.337 289.392C346.682 289.404 346.713 289.466 346.775 289.51C346.851 289.585 347.045 289.791 347.22 290.334C347.389 290.845 347.477 291.544 347.452 292.218C347.42 292.929 347.283 293.996 347.27 295.107C347.258 296.23 347.345 297.591 348.021 298.97C348.654 300.342 350.038 301.509 351.409 301.921C352.786 302.37 354.139 302.327 355.366 301.984L355.347 301.977ZM345.11 285.554C345.11 285.554 345.104 285.51 345.097 285.492C345.11 285.51 345.129 285.517 345.141 285.535C345.21 285.641 345.147 285.673 345.11 285.554Z" fill="#7A20B3"/>
<path d="M228.423 302.963C227.603 303.35 226.588 304.617 226.35 306.495C226.119 308.267 226.194 310.314 225.267 311.1C224.81 311.63 224.046 312.217 223.094 313.109C222.199 313.964 220.872 315.406 220.684 317.602C220.471 321.87 224.19 324.485 227.095 324.472C230.026 324.534 232.105 323.106 233.351 321.814C234.609 320.485 235.229 319.212 235.636 318.338C236.037 317.458 236.199 316.947 236.199 316.947C236.199 316.947 235.793 317.278 235.066 317.87C234.34 318.438 233.288 319.262 231.961 319.898C230.677 320.535 228.974 320.897 227.571 320.51C226.858 320.304 226.375 319.998 225.962 319.468C225.555 318.956 225.361 318.32 225.43 317.92C225.442 317.558 225.787 316.922 226.513 316.104C227.202 315.287 228.16 314.326 228.83 312.941C229.55 311.506 229.506 309.908 229.312 308.879C229.124 307.799 228.861 306.982 228.717 306.295C228.41 305.079 228.642 303.987 228.955 303.481C229.262 302.945 229.669 302.832 229.656 302.82C229.663 302.863 229.262 302.576 228.423 302.963Z" fill="#7A20B3"/>
<path d="M206.214 198.571C209.589 194.983 212.412 191.414 214.472 188.718C216.526 186.022 217.753 184.175 217.753 184.175C217.753 184.175 215.787 185.093 212.888 186.952C209.989 188.805 206.189 191.669 202.664 195.426C199.132 199.182 196.603 203.057 195.006 205.946C193.409 208.841 192.683 210.745 192.683 210.745C192.683 210.745 194.417 209.465 196.953 207.306C199.489 205.141 202.845 202.152 206.22 198.564L206.214 198.571Z" fill="#7A20B3"/>
<path d="M178.407 227.792C180.999 225.246 181.055 221.047 181.055 221.047C181.055 221.047 177.637 221.908 175.038 224.454C172.44 226.999 171.657 230.263 171.657 230.263C171.657 230.263 175.808 230.344 178.407 227.798V227.792Z" fill="#7A20B3"/>
<path d="M43.2362 359.54C45.9849 356.008 48.2766 352.713 49.9108 350.28C51.545 347.853 52.4905 346.274 52.4905 346.274C52.4905 346.274 50.6872 347.035 48.1263 348.72C45.5717 350.405 42.2594 353.063 39.4167 356.726C36.5741 360.388 34.777 364.295 33.7564 367.234C32.7296 370.179 32.4165 372.157 32.4165 372.157C32.4165 372.157 33.769 370.753 35.7789 368.469C37.7888 366.185 40.4937 363.059 43.2424 359.534L43.2362 359.54Z" fill="#7A20B3"/>
<path d="M450.821 256.826C452.461 253.456 451.146 249.388 451.146 249.388C451.146 249.388 448.172 251.435 446.526 254.804C444.885 258.174 445.192 261.599 445.192 261.599C445.192 261.599 449.174 260.202 450.815 256.826H450.821Z" fill="#7A20B3"/>
<path d="M305.463 226.718C301.024 225.589 299.258 232.472 303.704 233.601C308.143 234.73 309.909 227.848 305.463 226.718Z" fill="#7A20B3"/>
<path d="M167.111 329.42C162.672 328.291 160.906 335.173 165.352 336.296C169.791 337.426 171.557 330.543 167.111 329.42Z" fill="#7A20B3"/>
<path d="M161.883 315.73C157.444 314.601 155.678 321.483 160.124 322.606C164.563 323.736 166.329 316.853 161.883 315.73Z" fill="#7A20B3"/>
<path d="M178.507 317.203C174.068 316.073 172.302 322.956 176.748 324.085C181.187 325.215 182.953 318.332 178.507 317.203Z" fill="#7A20B3"/>
<path d="M299.477 131.499C295.038 130.369 293.272 137.252 297.718 138.381C302.157 139.51 303.923 132.628 299.477 131.499Z" fill="#7A20B3"/>
<path d="M293.36 315.449C285.996 318.357 281.031 323.505 281.031 323.505C281.031 323.505 287.843 322.725 295.2 319.811C302.564 316.903 307.686 312.966 307.686 312.966C307.686 312.966 300.717 312.535 293.36 315.443V315.449Z" fill="#7A20B3"/>
<path d="M322.394 306.47C320.24 307.443 319.695 310.938 319.695 310.938C319.695 310.938 322.231 311.743 324.379 310.769C326.532 309.796 327.484 307.418 327.484 307.418C327.484 307.418 324.541 305.497 322.394 306.47Z" fill="#7A20B3"/>
<path d="M426.182 170.853C440.352 181.623 453 191.233 462.116 198.159C471.289 205.023 476.899 209.222 476.899 209.222C476.899 209.222 471.934 204.087 463.444 196.187C454.953 188.3 442.913 177.661 428.712 166.822C414.517 155.978 400.868 147.036 390.755 140.896C380.643 134.743 374.119 131.305 374.119 131.305C374.119 131.305 380.073 135.798 389.578 142.961C399.039 150.168 412.032 160.071 426.182 170.853Z" fill="#7A20B3"/>
<path d="M367.169 216.042C367.764 215.649 369.467 214.17 368.69 213.421C367.995 212.754 366.255 213.727 365.754 214.233C365.485 214.507 365.253 214.838 365.19 215.218C365.121 215.593 365.247 216.023 365.56 216.248C366.029 216.585 366.693 216.367 367.175 216.048L367.169 216.042Z" fill="#7A20B3"/>
<path d="M359.824 240.147C360.031 240.846 360.663 241.37 361.365 241.569C362.354 241.856 364.383 241.588 365.009 240.64C365.829 239.398 363.587 238.805 362.755 238.487C362.047 238.219 361.239 237.944 360.563 238.281C359.906 238.605 359.611 239.454 359.818 240.153L359.824 240.147Z" fill="#7A20B3"/>
<path d="M192.476 257C191.994 255.465 187.442 252.158 188.312 255.26C188.588 256.233 188.907 257.2 189.277 258.142C190.253 260.651 193.209 259.334 192.476 256.994V257Z" fill="#7A20B3"/>
<path d="M189.151 266.785C189.001 264.089 186.177 265.892 185.269 267.24C184.881 267.82 184.568 268.488 184.581 269.181C184.593 269.88 184.988 270.603 185.651 270.834C187.511 271.477 189.233 268.307 189.151 266.785Z" fill="#7A20B3"/>
<path d="M105.299 356.252C104.303 356.732 103.483 357.518 102.744 358.342C102.5 358.623 102.256 358.91 102.131 359.259C102.006 359.609 102.024 360.027 102.262 360.314C102.532 360.632 103.02 360.694 103.421 360.569C103.821 360.445 104.159 360.176 104.479 359.908C105.236 359.29 107.904 357.768 108.079 356.819C108.373 355.266 106.019 355.902 105.293 356.252H105.299Z" fill="#7A20B3"/>
<path d="M97.754 363.465C97.6726 363.814 97.6351 364.226 97.8793 364.488C98.0421 364.669 98.3113 364.738 98.5555 364.713C99.5573 364.625 100.81 363.615 100.115 362.548C99.2818 361.281 97.9982 362.441 97.754 363.459V363.465Z" fill="#7A20B3"/>
<path d="M206.752 44.147C205.625 36.6966 205.206 29.0653 203.321 21.8146C200.71 11.7684 194.179 4.46155 183.648 0.399414C184.261 2.10913 184.418 4.23692 185.557 5.46617C194.129 14.7261 197.423 25.9953 199.489 38.0943C200.359 43.1798 203.64 47.8534 205.826 52.7143C206.614 52.421 207.397 52.1277 208.186 51.8345C207.704 49.2699 207.14 46.724 206.752 44.147Z" fill="#7A20B3"/>
<path d="M311.167 57.5189C329.945 66.03 368.715 84.8744 414.198 114.096C416.74 115.749 419.289 117.409 421.837 119.062C458.648 143.267 499.246 174.073 536.909 211.475C517.692 162.804 483.461 119.512 435.869 89.1736C374.163 49.8439 302.019 39.96 236.037 55.884C235.843 54.1369 235.198 52.5021 234.064 51.0107C228.41 43.5853 227.133 35.1865 226.626 26.3009C226.238 19.3997 220.872 13.7089 213.514 11.7559C213.621 12.6544 213.439 13.6091 213.834 14.127C218.643 20.4542 220.083 27.6862 220.164 35.4548C220.239 42.3498 222.18 48.4212 227.753 53.3632C228.917 54.399 229.813 55.7405 230.639 57.2568C213.195 61.8618 196.221 68.2826 180.022 76.4506C178.707 69.7677 177.593 63.0474 176.234 56.3708C174.475 47.6911 169.798 41.1455 160.794 36.1661C161.257 38.5061 161.194 39.7041 161.702 40.5528C166.51 48.5772 168.771 57.1383 169.121 66.5604C169.303 71.3963 170.968 75.8703 173.949 79.6142C136.675 99.6753 103.846 129.177 79.4019 167.259C47.4877 216.978 34.9085 273.499 39.6985 328.072C1.59799 371.003 1.34127 380.418 1.2223 384.811C1.07829 390.034 3.05688 394.365 6.93268 397.335C7.05791 397.435 7.20818 397.516 7.33967 397.609C10.0008 402.695 19.9501 419.286 38.4274 423.979C41.6646 424.802 45.1647 425.252 48.9278 425.22C50.1362 425.208 51.376 425.152 52.6408 425.033C75.3132 422.937 130.664 408.348 152.422 402.445C151.639 405.715 150.951 408.941 150.475 412.067C124.578 418.8 88.387 427.635 71.1306 429.227C70.8677 429.251 70.6172 429.264 70.3605 429.283C90.4783 466.01 119.888 498.358 157.757 522.5C277.831 599.031 437.422 564.076 514.224 444.421C538.405 406.744 551.491 365.156 554.328 323.474C553.977 323.286 553.639 323.087 553.301 322.887C558.886 322.407 564.296 320.429 568.954 317.053C575.685 312.173 580.106 304.972 581.402 296.78C582.698 288.587 580.713 280.375 575.817 273.667C525.726 205.054 460.044 152.152 403.353 114.869C400.805 113.216 398.263 111.556 395.714 109.902C352.743 82.2911 315.763 63.9459 295.977 54.8295C301.03 54.4489 306.246 55.285 311.173 57.5189H311.167ZM183.992 118.064C191.355 120.017 196.715 125.708 197.103 132.609C197.604 141.495 198.888 149.894 204.542 157.319C205.594 158.698 206.226 160.196 206.47 161.793C205.074 163.103 203.659 164.432 202.244 165.768C201.061 163.347 199.94 161.181 198.237 159.671C192.664 154.729 190.717 148.658 190.648 141.763C190.567 133.994 189.126 126.769 184.318 120.441C183.923 119.924 184.105 118.969 183.998 118.07L183.992 118.064ZM169.967 144.402C167.9 132.303 164.607 121.034 156.035 111.774C154.895 110.545 154.739 108.417 154.125 106.708C164.657 110.77 171.188 118.077 173.799 128.123C175.683 135.373 176.103 143.005 177.23 150.455C177.618 153.032 178.182 155.584 178.664 158.143C177.875 158.436 177.092 158.729 176.303 159.022C174.118 154.162 170.831 149.488 169.967 144.402ZM139.599 172.869C139.248 163.447 136.988 154.885 132.179 146.861C131.666 146.006 131.728 144.814 131.271 142.474C140.281 147.454 144.959 153.999 146.712 162.679C148.215 170.086 149.41 177.549 150.926 184.949C151.358 187.052 152.403 189.024 153.174 191.058C152.823 191.401 152.472 191.75 152.115 192.094C151.007 191.463 149.805 190.946 148.797 190.178C143.061 185.829 139.849 179.708 139.593 172.869H139.599ZM51.6515 414.432C42.4723 415.28 35.159 412.179 29.6239 408.011C27.1006 406.114 24.9404 403.993 23.1434 401.927C24.0388 401.958 24.9655 401.965 25.9047 401.958C36.2046 401.89 49.3786 399.556 64.9569 395.756C65.0696 396.555 65.3326 397.428 65.9212 398.202C67.6744 397.409 68.5384 395.681 68.8891 394.776C81.4306 391.6 95.4123 387.582 110.621 383.089C129.374 377.548 152.485 370.722 158.803 371.277C159.585 374.516 157.287 383.769 155.497 390.558C140.851 394.577 75.6514 412.204 51.6577 414.426L51.6515 414.432ZM85.4442 373.28C85.0434 372.282 85.1812 370.772 85.8574 368.794C87.5542 363.802 90.8916 359.415 95.2557 356.439C99.8892 353.281 105.418 352.083 110.045 353.231L110.108 353.25C114.935 354.473 118.811 358.529 119.343 362.916C119.594 365.012 118.968 367.29 117.615 369.162C117.346 369.536 117.039 369.867 116.726 370.191C113.84 371.034 110.803 371.926 107.591 372.874C103.433 374.104 99 375.414 94.4167 376.743C92.6322 376.456 90.8665 376.1 89.8772 375.907L89.1446 375.757C87.3727 375.402 85.92 374.434 85.4567 373.274L85.4442 373.28ZM194.768 394.795L206.859 391.026C204.342 403.612 200.491 418.413 196.433 433.963C195.607 437.12 194.812 440.209 194.029 443.235C191.33 444.62 188.225 445.232 184.624 444.864C179.935 444.389 176.178 442.729 173.423 439.934C186.591 435.491 190.948 414.176 194.762 394.789L194.768 394.795ZM197.21 382.877C199.376 373.08 202.05 363.951 205.713 361.643C206.251 361.3 206.934 361.038 208.286 361.381C208.318 361.399 211.016 363.496 208.9 379.239L197.216 382.883L197.21 382.877ZM308.431 429.039L304.78 414.713L297.955 416.441L301.606 430.768L289.953 433.719L279.735 393.622L291.394 390.67L295 404.829L301.825 403.1L298.218 388.942L309.871 385.991L320.089 426.094L308.431 429.046V429.039ZM338.066 421.539L320.64 425.951L318.004 415.605L320.891 414.875L315.944 395.463L313.058 396.193L310.422 385.847L327.847 381.435L330.483 391.781L327.597 392.511L332.543 411.923L335.43 411.193L338.066 421.539ZM354.608 417.471C352.699 417.639 350.789 417.546 348.867 417.19C346.945 416.834 345.072 416.179 343.257 415.224C340.677 413.914 338.504 412.179 336.732 410.014C334.96 407.855 333.658 405.49 332.831 402.938C332.005 400.38 331.686 397.715 331.886 394.932C332.086 392.156 332.838 389.479 334.152 386.908C335.424 384.468 337.196 382.353 339.475 380.556C341.754 378.765 344.277 377.38 347.045 376.4C349.812 375.427 352.655 374.921 355.579 374.89C358.503 374.859 361.227 375.383 363.75 376.475L358.315 386.914C356.775 386.44 355.26 386.284 353.763 386.446C352.267 386.608 350.902 386.977 349.668 387.544C348.435 388.112 347.364 388.817 346.456 389.653C345.548 390.496 344.935 391.363 344.609 392.268C344.158 393.441 343.908 394.645 343.845 395.874C343.783 397.104 343.92 398.289 344.246 399.425C344.571 400.561 345.104 401.59 345.836 402.526C346.569 403.462 347.514 404.211 348.685 404.779C349.825 405.39 351.008 405.74 352.229 405.827C353.45 405.908 354.634 405.758 355.773 405.372C356.913 404.985 357.971 404.404 358.935 403.631C359.899 402.857 360.682 401.883 361.289 400.71L361.44 400.38L356.28 401.684L355.867 391.482L370.312 387.888L376.454 412.005L365.503 414.719L365.209 413.558C363.637 414.663 361.953 415.549 360.156 416.223C358.359 416.89 356.506 417.315 354.596 417.483L354.608 417.471ZM389.347 380.949L385.74 366.791L397.392 363.839L407.611 403.936L395.959 406.888L392.308 392.561L385.483 394.29L389.134 408.616L377.481 411.568L367.263 371.464L378.921 368.513L382.528 382.671L389.353 380.943L389.347 380.949ZM490.568 356.451L493.048 366.185L479.448 369.623L480.35 373.161L496.61 369.043L499.572 380.655L471.652 387.719L461.434 347.622L489.353 340.558L492.315 352.171L476.054 356.289L476.968 359.883L490.568 356.445V356.451ZM458.616 358.473C459.818 360.17 460.645 362.005 461.108 363.964C461.572 365.929 461.647 367.957 461.334 370.06C461.021 372.163 460.319 374.154 459.224 376.038L471.546 387.756L459.004 390.933C456.719 388.923 454.847 387.326 453.382 386.147C451.917 384.967 450.752 384.094 449.882 383.532C449.011 382.971 448.385 382.652 448.016 382.59C447.646 382.528 447.421 382.602 447.333 382.821C447.252 383.039 447.258 383.332 447.352 383.701C447.446 384.069 447.527 384.381 447.59 384.643L449.788 393.273L438.135 396.224L427.917 356.12L443.182 352.258C444.96 351.809 446.814 351.79 448.748 352.202C450.683 352.614 452.449 353.306 454.033 354.28C455.886 355.378 457.414 356.782 458.616 358.479V358.473ZM429.376 368.107L413.115 372.226L414.029 375.82L427.629 372.375L430.108 382.109L416.508 385.554L417.41 389.092L433.671 384.973L436.633 396.586L408.713 403.649L398.494 363.546L426.414 356.482L429.376 368.095V368.107ZM408.212 450.81C407.905 451.022 407.58 451.178 407.217 451.266C406.734 451.39 406.246 451.603 405.764 451.896L405.344 452.089C405.269 452.227 405.075 452.482 404.768 452.857L403.641 453.587L403.015 454.573C402.877 454.741 402.758 454.922 402.646 455.109C402.508 455.184 402.383 455.234 402.283 455.259C401.882 455.359 401.525 455.247 401.218 454.91C400.742 453.911 400.467 453.275 400.392 452.994C400.254 452.439 400.191 451.865 400.223 451.272L400.26 448.788L400.799 446.679C400.811 446.38 400.799 446.087 400.774 445.799C400.667 445.2 400.736 444.72 400.98 444.364C401.112 444.271 401.256 444.208 401.4 444.171C401.525 444.14 401.656 444.133 401.8 444.158C401.938 444.183 402.095 444.202 402.251 444.221C402.602 444.271 403.842 444.514 405.971 444.963C406.315 445.25 406.709 445.525 407.154 445.781C407.786 446.149 408.431 446.629 409.095 447.203C409.139 448.526 408.845 449.731 408.2 450.823L408.212 450.81ZM423.878 436.427C421.712 437.775 420.522 438.518 420.315 438.674C420.128 439.173 420.009 439.672 419.958 440.177C419.94 440.458 419.896 440.727 419.827 440.976C419.727 441.65 419.658 444.015 419.62 448.077C419.671 449.6 419.608 450.673 419.433 451.309C419.226 451.459 418.994 451.578 418.75 451.659C417.085 452.077 415.701 451.927 414.599 451.203C413.184 450.479 412.345 449.6 412.082 448.57C411.919 447.94 412.032 447.235 412.414 446.448C412.708 444.976 412.714 443.366 412.426 441.613C412.251 441.188 411.969 440.932 411.593 440.851C410.116 440.851 409.183 440.096 408.794 438.58C408.625 437.912 408.569 437.026 408.619 435.909C408.669 434.973 408.794 434.431 408.995 434.281C409.195 434.131 410.679 433.226 413.459 431.56C413.497 431.454 413.553 431.348 413.616 431.254C413.735 431.03 413.816 430.799 413.847 430.574C413.847 430.493 413.866 430.424 413.891 430.356C415.137 423.38 415.77 419.081 415.782 417.464C415.594 417.159 415.338 417.046 415.025 417.127C413.491 417.514 412.082 418.637 410.804 420.497C409.001 420.541 407.987 420.166 407.761 419.38L407.692 419.105C407.06 416.634 407.743 414.669 409.721 413.228L411.28 412.098C411.675 411.805 412.063 411.58 412.439 411.437C412.814 411.293 413.196 411.125 413.572 410.931C414.524 410.457 415.644 410.014 416.934 409.608C418.005 409.14 418.875 408.822 419.545 408.654C420.24 408.479 420.985 408.36 421.774 408.311C422.569 408.254 423.377 408.173 424.197 408.067L425.074 408.198C427.065 408.36 428.555 408.76 429.545 409.396L431.204 410.363C433.114 411.43 434.692 413.109 435.944 415.386C436.532 416.46 436.864 417.121 436.952 417.371C437.403 419.143 437.472 420.553 437.152 421.595C436.363 424.821 434.641 427.785 431.987 430.481L431.185 431.304C430.528 432.078 429.689 432.796 428.656 433.451C427.622 434.106 426.026 435.104 423.859 436.446L423.878 436.427ZM498.351 425.258C498.245 425.283 497.568 425.183 496.322 424.946C495.189 425.077 492.803 425.52 489.166 426.287C488.608 426.487 487.895 426.787 487.024 427.186C486.154 427.585 485.252 427.941 484.319 428.253C483.305 428.665 482.391 429.095 481.589 429.532C480.782 429.969 478.853 430.755 475.804 431.885C475.353 431.928 474.908 431.654 474.464 431.061C474.345 431.236 474.17 431.367 473.938 431.442C473.831 431.467 473.155 431.367 471.909 431.13C470.776 431.261 468.39 431.704 464.752 432.471C464.195 432.671 463.481 432.97 462.611 433.37C461.741 433.769 460.839 434.125 459.906 434.437C458.892 434.849 457.978 435.279 457.176 435.716C456.368 436.153 454.44 436.939 451.391 438.068C450.495 438.156 449.612 436.976 448.742 434.524C448.586 434.075 448.448 433.626 448.335 433.183C447.747 430.874 448.272 428.727 449.919 426.737C450.414 426.3 452.048 424.054 454.828 420.01C457.608 415.967 458.998 413.783 459.011 413.471C459.349 412.872 459.937 412.136 460.764 411.256C460.827 411.062 460.839 410.9 460.808 410.775C460.733 410.576 460.545 410.482 460.232 410.482L459.574 410.675L457.752 411.05C457.546 411.125 457.414 411.175 457.358 411.212C456.13 411.836 454.997 412.279 453.964 412.541C451.773 413.097 450.157 412.298 449.105 410.158L448.849 410.264C448.398 410.694 448.166 411.274 448.147 412.005C448.128 413.072 447.984 414.132 447.715 415.181C446.738 419.361 446.081 423.448 445.73 427.448C445.649 428.372 445.555 429.314 445.436 430.262L445.317 431.648C446.607 432.502 447.684 433.601 448.548 434.955C448.604 434.998 448.698 435.229 448.823 435.654C448.886 435.891 448.911 436.128 448.899 436.359C448.886 436.589 448.899 436.795 448.924 436.989C448.999 437.382 448.942 437.769 448.748 438.156C448.736 438.199 448.717 438.224 448.686 438.243C448.654 438.262 448.636 438.28 448.617 438.305C448.46 438.405 448.291 438.474 448.103 438.524C447.916 438.574 445.693 439.491 441.441 441.269C441.147 441.425 440.846 441.538 440.552 441.613C440.089 441.731 439.651 441.85 439.231 441.974C438.812 442.081 438.411 441.956 438.029 441.6C437.647 441.244 437.39 441.014 437.246 440.914C436.282 440.034 435.65 439.011 435.349 437.825C435.073 436.752 435.086 435.997 435.374 435.547C435.487 435.36 435.637 435.179 435.837 434.986L437.077 434.849C437.497 432.896 437.772 431.055 437.891 429.339C438.373 423.673 438.999 419.006 439.77 415.33C439.851 414.937 439.87 414.669 439.832 414.519C439.726 414.095 439.369 413.802 438.768 413.639C438.455 413.546 438.116 413.384 437.772 413.153C437.678 413.04 437.54 412.903 437.365 412.741C437.19 412.579 437.014 412.41 436.833 412.242C436.608 411.63 436.445 411.1 436.332 410.657C436.251 410.345 436.194 409.777 436.169 408.96C436.269 408.286 436.601 407.83 437.165 407.587C437.935 407.624 438.668 407.562 439.363 407.381C440.183 407.175 441.379 406.726 442.95 406.033C444.34 405.428 446.162 404.835 448.417 404.267C448.529 404.286 448.636 404.33 448.742 404.361L456.062 402.476C457.765 402.046 459.468 401.653 461.171 401.303C466.543 400.217 469.743 399.987 470.776 400.611C471.89 401.391 473.093 403.718 474.37 407.599C474.451 408.367 474.307 408.941 473.938 409.328C472.279 411.181 470.983 412.604 470.05 413.583C466.9 416.797 464.602 419.324 463.143 421.171L461.403 423.174C461.108 423.505 460.945 423.81 460.927 424.091L461.334 424.49C465.416 423.455 468.885 422.856 471.734 422.687C472.091 422.731 472.41 423.055 472.692 423.648C472.955 422.575 473.5 421.545 474.32 420.553C474.814 420.116 476.449 417.87 479.229 413.827C482.009 409.783 483.399 407.599 483.411 407.287C483.749 406.688 484.338 405.952 485.165 405.072C485.227 404.879 485.24 404.716 485.208 404.592C485.133 404.392 484.945 404.298 484.632 404.298L483.975 404.492L482.153 404.866C481.946 404.941 481.815 404.991 481.758 405.028C480.531 405.652 479.398 406.095 478.365 406.357C475.566 407.069 473.694 405.571 472.754 401.883C472.279 400.018 472.391 398.788 473.093 398.202L480.475 396.305C482.178 395.875 483.881 395.481 485.584 395.132C490.956 394.046 494.156 393.815 495.189 394.439C496.304 395.219 497.506 397.547 498.783 401.428C498.864 402.195 498.72 402.77 498.351 403.156C496.692 405.01 495.396 406.432 494.463 407.412C491.313 410.625 489.015 413.153 487.556 415L485.816 417.003C485.521 417.333 485.359 417.639 485.34 417.92L485.747 418.319C489.829 417.283 493.298 416.684 496.147 416.516C496.61 416.578 497.011 417.102 497.355 418.095C497.618 419.031 498.019 420.216 498.564 421.651C498.802 422.575 498.952 423.274 499.027 423.742C499.152 424.578 498.921 425.083 498.339 425.27L498.351 425.258ZM520.836 389.086C520.942 389.51 520.986 389.903 520.967 390.259L520.667 396.08C520.535 397.865 520.523 399.656 520.623 401.459L520.842 401.403C522.439 400.997 523.472 401.703 523.935 403.512C524.098 404.161 524.192 404.96 524.21 405.921C524.229 406.17 524.267 406.407 524.323 406.632L524.461 408.367C524.38 408.485 524.242 408.566 524.054 408.616C523.791 408.641 523.346 408.735 522.714 408.897C522.263 409.053 521.919 409.165 521.693 409.246C521.468 409.321 521.312 409.54 521.218 409.895L521.719 412.248C522.683 415.58 523.24 417.477 523.403 417.926C523.697 419.068 523.641 419.704 523.246 419.823L523.121 419.854C522.132 420.104 520.779 420.229 519.064 420.235C517.348 420.235 516.102 419.236 515.326 417.233L513.735 412.448H513.704L513.303 412.323L512.427 412.572C510.022 413.614 508.501 414.401 507.85 414.937C507.129 417.121 506.516 419.817 506.009 423.012C505.796 423.398 505.401 423.704 504.832 423.929C503.798 424.016 502.784 423.948 501.789 423.729L500.693 423.505C499.572 422.98 498.702 421.751 498.069 419.804L497.756 418.706C498.126 417.864 498.363 417.177 498.47 416.641C497.568 414.862 497.061 413.764 496.955 413.34C496.811 412.766 496.779 412.167 496.867 411.537C497.155 411.069 497.312 410.831 497.337 410.813C497.368 410.794 497.418 410.763 497.493 410.713C497.568 410.663 498.263 410.445 499.578 410.051C500.017 409.92 500.436 409.627 500.831 409.172C501.025 408.791 501.175 408.379 501.288 407.936C501.475 407.181 501.676 406.432 501.895 405.69C502.264 404.498 502.546 403.275 502.74 402.027C502.784 401.684 502.878 401.334 503.016 400.985C503.861 398.845 504.525 396.661 505.013 394.439C505.082 394.109 505.383 393.129 505.908 391.5L506.19 390.49C506.416 389.784 506.434 389.073 506.253 388.349L506.053 387.307C506.103 386.883 506.334 386.571 506.754 386.365C507.994 386.309 509.208 386.49 510.392 386.92C510.811 387.07 511.231 387.182 511.65 387.251C511.863 387.039 512.082 386.82 512.289 386.602C512.502 386.384 512.765 386.234 513.084 386.153C513.566 386.028 514.211 386.034 515.006 386.165C516.49 386.44 517.88 386.895 519.183 387.526C520.103 387.881 520.654 388.412 520.829 389.111L520.836 389.086ZM523.866 344.876C525.538 347.023 526.721 349.481 527.429 352.246C528.136 355.01 528.268 357.743 527.836 360.445C527.404 363.147 526.508 365.636 525.162 367.92C523.816 370.204 522.05 372.182 519.878 373.848C517.705 375.514 515.232 376.699 512.452 377.405L500.799 380.356L490.581 340.253L502.239 337.301C505.013 336.596 507.756 336.465 510.467 336.895C513.178 337.326 515.67 338.231 517.949 339.597C520.228 340.964 522.201 342.723 523.872 344.87L523.866 344.876ZM535.581 319.131C499.472 328.784 411.856 351.166 273.83 385.991C264.394 407.986 256.687 437.139 249.906 462.859C238.416 506.407 231.347 531.323 219.682 537.057C217.096 538.33 214.353 538.63 211.661 537.943C211.073 537.794 210.49 537.6 209.908 537.357C207.053 536.165 204.874 534.231 203.277 531.597C213.734 524.016 220.627 499.556 231.416 458.666C238.203 432.945 245.905 403.793 255.34 381.797C408.356 343.191 499.422 319.879 527.041 312.242C529.464 315.031 532.363 317.359 535.581 319.131ZM520.159 303.175C513.566 304.941 504.312 307.362 493.01 310.295C493.755 308.061 495.039 303.643 494.707 300.399C491.301 303.406 488.633 310.208 488.633 310.208L488.101 311.562C486.135 312.067 484.119 312.591 482.046 313.128C483.349 309.902 485.603 303.812 485.96 299.438C481.664 303.955 477.319 313.658 477.319 313.658L476.968 314.438C462.736 318.107 446.388 322.3 428.762 326.806C428.856 326.425 428.956 326.019 429.056 325.583C429.501 323.58 429.995 321.102 429.82 319.025C428.111 320.223 426.608 322.413 425.644 324.335C424.661 326.25 424.172 327.866 424.172 327.866C424.16 327.904 424.147 327.948 424.135 327.985C395.339 335.336 363.424 343.454 331.936 351.434C331.999 350.099 331.992 348.57 331.585 347.191C330.126 348.027 329.006 349.718 328.373 351.216C328.179 351.659 328.035 352.077 327.916 352.451C321.567 354.061 315.249 355.659 308.982 357.25C309.264 355.827 309.639 352.988 308.688 350.848C306.008 352.676 304.774 357.007 304.774 357.007L304.373 358.41C289.559 362.161 275.089 365.817 261.339 369.286C267.613 357.818 274.613 349.881 282.534 347.996C321.354 338.761 459.994 299.881 506.979 286.652C511.475 292.037 515.87 297.541 520.147 303.169L520.159 303.175ZM404.687 304.186L414.924 290.883C416.865 288.362 418.869 285.76 421.317 284.069C423.578 282.509 426.17 281.947 428.08 282.603C428.881 282.877 429.401 283.451 429.444 283.645C429.413 283.975 428.693 284.893 428.393 285.286L416.089 301.029C412.307 302.077 408.506 303.132 404.687 304.192V304.186ZM489.785 267.109L489.084 267.284C489.084 267.284 480.988 269.268 477.012 272.369C481.978 273.286 490.073 271.302 490.073 271.302L492.985 270.591C495.133 272.95 497.262 275.333 499.365 277.742C482.291 282.546 456.193 289.866 427.622 297.815L434.015 289.635C434.948 288.437 436.357 286.634 436.551 284.188C436.827 280.631 434.297 277.218 430.396 275.882C426.326 274.503 421.417 275.371 417.272 278.222C413.904 280.543 411.443 283.738 409.277 286.552L393.285 307.331C347.483 319.986 301.982 332.353 281.388 337.32C283.798 333.139 285.99 329.751 285.99 329.751C277.95 332.134 267.738 343.054 262.641 348.982C261.558 350.193 260.494 351.472 259.454 352.832C246.268 370.116 236.606 399.306 228.21 429.451C227.74 429.957 227.239 430.499 226.67 431.08C225.975 431.766 225.098 432.752 224.547 432.983C224.253 433.101 224.178 433.051 224.021 432.989C223.871 432.933 223.633 432.771 223.445 432.54C223.251 432.29 223.151 432.066 223.119 431.779C223.076 431.448 223.101 431.061 223.22 430.612C223.458 429.688 224.046 428.727 224.942 427.56C225.806 426.4 226.914 425.058 227.646 423.361C228.01 422.525 228.279 421.601 228.36 420.616C228.454 419.642 228.291 418.569 227.997 417.758C227.402 416.123 226.682 415.168 226.363 414.326C226 413.452 225.818 412.541 225.755 411.693C225.649 409.977 226.031 408.535 226.419 407.599C226.807 406.657 227.139 406.17 227.139 406.17C227.139 406.17 226.595 406.445 225.774 407.237C224.973 408.03 223.89 409.446 223.389 411.63C223.151 412.71 223.044 413.983 223.288 415.355C223.526 416.753 224.084 418.013 224.184 418.968C224.278 419.836 224.034 420.578 223.483 421.576C222.938 422.537 222.055 423.536 221.047 424.871C220.058 426.181 219.012 427.904 218.743 429.907C218.599 430.899 218.649 431.991 218.993 433.008C219.35 434.106 220.051 434.998 220.865 435.61C221.686 436.228 222.694 436.627 223.764 436.633C224.854 436.652 225.9 436.159 226.488 435.591C226.507 435.572 226.513 435.56 226.532 435.547C224.666 442.386 222.863 449.231 221.085 455.964C214.391 481.335 206.934 509.577 200.009 519.754C198.656 502.857 205.293 475.121 214.93 438.162C218.987 422.612 222.831 407.811 225.355 395.226L216.32 398.04C219.482 383.482 221.041 372.282 220.158 364.395C219.532 345.881 199.977 340.883 194.242 339.816C194.073 339.785 194.017 339.997 194.161 340.084C199.395 343.416 202.689 347.285 204.761 350.804C203.089 351.104 201.48 351.709 199.996 352.645C191.055 358.279 187.993 373.885 184.437 391.95C181.193 408.46 177.186 428.79 168.664 430.038C167.512 423.292 168.877 415.106 170.906 406.638C170.111 406.85 169.272 407.081 168.395 407.318C168.921 406.401 169.428 405.521 169.985 404.76C171.169 403.106 172.158 402.501 174.162 401.752C176.046 401.054 178.313 400.036 179.478 398.258C180.736 396.411 180.379 394.533 179.822 393.578C179.215 392.561 178.52 392.393 178.557 392.374C178.526 392.374 179.058 392.892 179.139 393.865C179.221 394.801 178.745 396.124 177.637 396.767C176.51 397.491 175.013 397.653 172.909 397.959C171.857 398.14 170.586 398.389 169.253 399.138C167.932 399.868 166.861 400.966 166.047 402.114C164.438 404.442 163.805 406.676 163.016 408.348C162.941 408.51 162.866 408.666 162.791 408.816C162.497 408.897 162.19 408.978 161.889 409.059C162.829 404.542 164.081 399.818 165.239 395.481C168.426 383.507 171.05 373.661 168.633 367.09C166.216 358.429 157.375 353.937 152.485 352.077C151.865 351.84 151.37 352.607 151.827 353.088C153.818 355.166 155.265 357.967 156.304 360.75C149.855 361.137 140.306 363.452 126.049 367.496C126.481 365.699 126.619 363.858 126.406 362.067C125.53 354.766 119.55 348.327 111.861 346.374L111.761 346.349C105.092 344.695 97.6163 346.237 91.2359 350.579C85.6007 354.417 81.2929 360.077 79.1076 366.516C77.8616 370.185 77.7677 373.255 78.8259 375.901C79.5021 377.598 80.6667 379.064 82.1632 380.231C58.1821 386.902 32.6983 392.904 19.781 391.113C17.0761 390.739 14.9159 390.022 13.4445 388.892C12.6118 388.256 11.8479 387.351 11.9105 385.105C12.0733 379.033 22.4421 364.245 41.3828 342.424C41.771 345.095 42.1843 347.765 42.6539 350.43C54.5317 335.922 72.5833 315.786 100.033 287.601C99.6575 288.218 99.2568 288.924 98.9186 289.778C98.424 291.083 98.1548 292.642 98.687 294.358C98.95 295.207 99.4947 296.087 100.202 296.692C100.91 297.316 101.749 297.709 102.5 297.903C104.028 298.283 105.305 298.159 106.451 297.978C108.592 297.528 109.983 297.291 110.596 297.647C111.335 297.89 112.168 299.357 113.226 300.823C113.771 301.553 114.497 302.333 115.43 302.857C116.363 303.4 117.409 303.568 118.291 303.531C120.088 303.431 121.428 302.664 122.386 301.865C123.326 301.06 123.908 300.243 124.346 299.587C125.198 298.258 125.542 297.522 125.542 297.522C125.542 297.522 124.928 298.121 123.751 299.144C123.156 299.637 122.405 300.236 121.46 300.686C120.539 301.135 119.35 301.391 118.254 301.16C117.127 300.917 116.482 300.224 115.862 298.92C115.543 298.277 115.242 297.516 114.766 296.655C114.309 295.812 113.589 294.783 112.381 294.065C111.166 293.354 109.77 293.204 108.636 293.235C107.497 293.26 106.42 293.46 105.631 293.522C104.836 293.591 104.072 293.535 103.684 293.366C103.289 293.179 103.32 293.16 103.201 292.855C103.114 292.499 103.133 291.912 103.383 291.276C103.633 290.596 104.091 289.797 104.591 288.855C105.668 286.827 106.244 284.549 106.126 282.328C106.119 282.041 106.088 281.754 106.044 281.467C114.891 272.457 124.647 262.666 135.404 252.027C189.471 198.571 248.904 143.467 279.221 115.649C280.511 116.273 281.839 116.916 283.229 117.59L277.725 122.226C277.725 122.226 264.964 132.977 259.254 140.496C267.644 136.135 280.411 125.383 280.411 125.383L287.292 119.587C333.007 142.318 419.902 191.651 489.804 267.115L489.785 267.109ZM567.176 279.926C570.395 284.331 571.697 289.728 570.845 295.113C570.394 297.959 569.361 300.611 567.84 302.963C561.466 293.036 554.76 283.32 547.616 273.923C547.616 273.923 545.819 271.502 542.719 267.658C539.645 263.796 535.243 258.523 530.096 252.814C519.865 241.326 506.247 228.422 495.533 220.479C504.105 230.681 516.434 244.49 525.951 256.345C530.747 262.236 534.936 267.558 537.892 271.427C540.841 275.302 542.644 277.667 542.644 277.667C550.032 287.389 556.958 297.46 563.526 307.755C563.238 307.986 562.969 308.223 562.668 308.442C557.721 312.03 551.485 313.221 545.549 311.711C540.941 310.545 536.865 307.787 534.06 303.943C448.316 186.503 311.267 118.283 271.307 100.168C271.019 100.037 270.743 99.8999 270.468 99.7626C266.736 92.3684 265.972 83.564 268.934 75.3274C276.554 77.9357 284.074 80.8247 291.444 84.0632C291.444 84.0632 293.948 85.1115 297.987 86.9772C302.038 88.8055 307.617 91.4761 313.778 94.6522C326.169 100.905 340.595 109.709 350.895 116.105C341.841 108.049 327.803 98.2526 315.506 91.4637C309.389 88.0193 303.797 85.1926 299.715 83.2832C295.651 81.3364 293.109 80.2694 293.109 80.2694C285.733 77.0247 278.213 74.1294 270.593 71.5149C272.747 67.3654 275.734 63.8898 279.253 61.1942C281.106 61.138 282.984 61.3314 284.838 61.7994C285.996 62.0927 287.142 62.492 288.269 63.0037C330.533 82.16 475.553 154.417 567.182 279.919L567.176 279.926Z" fill="#7A20B3"/>
<path d="M431.949 415.742C431.273 414.756 430.165 414.114 428.637 413.827C427.103 413.533 425.556 413.527 423.991 413.808C423.578 413.933 423.196 415.873 422.851 419.623C422.507 423.374 422.213 425.869 421.968 427.111C421.95 427.292 421.925 427.454 421.906 427.598C421.887 427.741 421.893 427.866 421.918 427.979C421.968 428.085 422.025 428.128 422.087 428.11C422.188 428.166 422.344 428.159 422.557 428.11L422.945 427.922C424.392 426.924 425.725 425.807 426.927 424.559C430.553 420.322 432.225 417.383 431.943 415.742H431.949Z" fill="#7A20B3"/>
<path d="M508.689 348.633C507.524 348.458 506.347 348.52 505.163 348.82L509.465 365.692C510.648 365.393 511.713 364.9 512.658 364.207C513.604 363.515 514.368 362.697 514.956 361.743C515.539 360.788 515.921 359.74 516.102 358.598C516.284 357.456 516.221 356.289 515.921 355.11C515.62 353.93 515.113 352.882 514.412 351.959C513.704 351.041 512.865 350.299 511.894 349.737C510.924 349.176 509.859 348.807 508.689 348.633Z" fill="#7A20B3"/>
<path d="M444.916 363.477L442.255 364.151L444.215 371.839L446.876 371.165C447.947 370.896 448.761 370.285 449.306 369.343C449.85 368.4 449.988 367.396 449.719 366.323C449.443 365.255 448.849 364.444 447.916 363.895C446.989 363.346 445.987 363.209 444.916 363.477Z" fill="#7A20B3"/>
<path d="M512.314 399.737C511.913 399.837 511.675 400.049 511.6 400.361C510.943 402.788 510.636 404.092 510.68 404.28C510.692 404.336 510.692 404.386 510.68 404.423C510.986 404.579 511.281 404.623 511.556 404.554C511.807 404.473 512.132 404.273 512.546 403.949L512.671 400.086C512.439 399.887 512.32 399.774 512.314 399.737Z" fill="#7A20B3"/>
</g>
<defs>
<clipPath id="clip0_84_146">
<rect width="583" height="563.458" fill="white"/>
</clipPath>
</defs>
</svg>
